<svg width="160" height="79" viewBox="0 0 160 79" fill="none" xmlns="http://www.w3.org/2000/svg">
<path d="M71.3333 32.1833H68.4267C68.2307 32.1833 68.0667 32.3453 68.0667 32.5388V39.8964C68.0667 41.0906 67.576 41.7357 66.4667 41.7357C65.3573 41.7357 64.8667 41.0774 64.8667 39.8964V32.5388C64.8667 32.3453 64.736 32.1833 64.5067 32.1833H61.5733C61.3773 32.1833 61.2133 32.3453 61.2133 32.5388V40.6074C61.2133 43.0919 63.044 45.1235 66.4427 45.1235C69.8747 45.1235 71.736 43.1222 71.736 40.6074V32.5388C71.736 32.3453 71.572 32.1833 71.344 32.1833H71.3333ZM92.4573 37.3447L90.3333 36.6337C89.712 36.4072 89.6467 36.0846 89.6467 35.8595C89.6467 35.5369 89.9733 35.2011 90.58 35.2011C91.2667 35.2011 92.2467 35.3947 93.1933 36.1044C93.324 36.2018 93.52 36.2018 93.62 36.0714L95.2547 34.0385C95.3058 33.9721 95.3306 33.8896 95.3244 33.8065C95.3183 33.7233 95.2816 33.6453 95.2213 33.5869C93.816 32.4256 92.1147 32.0069 90.548 32.0069C87.508 32.0069 85.6787 33.8792 85.6787 35.9121C85.6787 37.4921 86.612 38.98 88.62 39.6251L90.4827 40.2835C91.3973 40.606 91.5493 40.8325 91.5493 41.2051C91.5493 41.5606 91.1893 41.9477 90.4387 41.9477C89.3933 41.9477 88.172 41.3342 87.3667 40.6574C87.236 40.56 87.04 40.56 86.94 40.6903L85.2733 42.8852C85.2223 42.9516 85.1975 43.0341 85.2036 43.1172C85.2097 43.2004 85.2464 43.2785 85.3067 43.3368C86.516 44.3691 88.3133 45.1446 90.6 45.1446C93.4427 45.1446 95.5333 43.4988 95.5333 41.0458C95.5333 39.3341 94.4667 38.0122 92.4267 37.3328L92.4573 37.3447ZM79.1107 37.6027H77.2V35.4078H79.096C80.1627 35.4078 80.5667 35.8924 80.5667 36.5046C80.5667 37.1169 80.14 37.6014 79.096 37.6014L79.1107 37.6027ZM81.972 40.1505C83.5413 39.3763 84.3253 38.215 84.3253 36.4375C84.3253 34.1991 82.4947 32.2241 79.392 32.2241H73.792C73.596 32.2241 73.4653 32.4177 73.4653 32.5796V44.585C73.4653 44.7786 73.6293 44.9076 73.792 44.9076H76.8C76.996 44.9076 77.1267 44.7456 77.1267 44.585V40.714H78.3027L80.4267 44.6192C80.5253 44.7812 80.72 44.9089 80.9173 44.9089H84.3813C84.5773 44.9089 84.6427 44.7799 84.5453 44.6192L81.972 40.1505ZM45.532 32.1846H36.8067C36.5453 32.1846 36.38 32.3782 36.38 32.5717V44.5139C36.38 44.7075 36.544 44.8694 36.74 44.8694H39.6813C39.8773 44.8694 40.008 44.6759 40.008 44.5139V40.6429H43.7333C43.8272 40.6453 43.9187 40.6139 43.9909 40.5545C44.063 40.4952 44.1108 40.4119 44.1253 40.3203L44.6813 37.687C44.7147 37.525 44.648 37.3644 44.42 37.3644H40.04V35.4289H44.9733C45.0672 35.4313 45.1587 35.3999 45.2309 35.3405C45.303 35.2812 45.3508 35.1979 45.3653 35.1063L45.888 32.6218C45.9213 32.4282 45.7893 32.2004 45.528 32.2004L45.532 32.1846ZM157.251 35.4434C157.345 35.4458 157.436 35.4144 157.508 35.355C157.58 35.2957 157.628 35.2124 157.643 35.1208L158.165 32.6363C158.199 32.4098 158.165 32.2149 157.839 32.2149H149.048C148.787 32.2149 148.656 32.4085 148.656 32.602V44.5442C148.656 44.7377 148.82 44.8997 149.016 44.8997H157.023C157.117 44.9021 157.208 44.8707 157.28 44.8113C157.352 44.752 157.4 44.6687 157.415 44.5771L157.937 42.0926C157.971 41.8661 157.937 41.6712 157.611 41.6712H152.284V40.2189H156.009C156.103 40.2213 156.195 40.1899 156.267 40.1306C156.339 40.0712 156.387 39.988 156.401 39.8964L156.957 37.263C156.991 37.1011 156.924 36.9404 156.696 36.9404H152.296V35.4882H157.264L157.251 35.4434ZM128.621 39.3934H127.445L128.621 35.5224L129.797 39.3934H128.621ZM131.04 32.4875C131.007 32.3255 130.811 32.1978 130.648 32.1978H126.627C126.463 32.1978 126.267 32.3268 126.235 32.4875L122.541 44.6008C122.475 44.7628 122.575 44.9234 122.771 44.9234H126.072C126.236 44.9234 126.432 44.7614 126.464 44.6008L126.987 42.7614H130.288L130.844 44.6008C130.877 44.7628 131.073 44.9234 131.236 44.9234H134.503C134.667 44.9234 134.764 44.7614 134.732 44.6008L131.04 32.4875Z" fill="#0D389E"/>
<path d="M121.531 32.1846H118.624C118.428 32.1846 118.264 32.3465 118.264 32.5401V39.8976C118.264 41.0918 117.773 41.737 116.664 41.737C115.555 41.737 115.064 41.0787 115.064 39.8976V32.5401C115.064 32.3465 114.933 32.1846 114.704 32.1846H111.797C111.601 32.1846 111.437 32.3465 111.437 32.5401V40.6086C111.437 43.0932 113.268 45.1248 116.667 45.1248C120.099 45.1248 121.96 43.1235 121.96 40.6086V32.5401C121.893 32.3465 121.731 32.1846 121.533 32.1846H121.531ZM141.629 37.604H139.733V35.4091H141.629C142.675 35.4091 143.1 35.8936 143.1 36.5059C143.1 37.1181 142.673 37.6027 141.629 37.6027V37.604ZM144.505 40.1517C146.075 39.3775 146.859 38.2162 146.859 36.4387C146.859 34.2004 145.028 32.2254 141.925 32.2254H136.325C136.129 32.2254 135.999 32.419 135.999 32.5809V44.5863C135.999 44.7798 136.163 44.9089 136.325 44.9089H139.332C139.528 44.9089 139.659 44.7469 139.659 44.5863V40.7153H140.835L142.959 44.6205C143.057 44.7825 143.252 44.9102 143.449 44.9102H146.913C147.109 44.9102 147.175 44.7811 147.077 44.6205L144.505 40.1517ZM103.164 41.7686C101.497 41.7686 100.353 40.3163 100.353 38.5428C100.353 36.7692 101.497 35.3169 103.164 35.3169C104.831 35.3169 105.975 36.7692 105.975 38.5428C105.975 40.3506 104.831 41.7686 103.164 41.7686ZM109.831 43.3183C109.404 43.4803 108.655 43.6738 107.772 43.4803L108.164 43.1248C109.897 41.317 110.387 38.6086 109.537 36.2834C108.655 33.8949 106.335 32.2491 103.753 32.07C101.14 31.8765 98.492 33.1234 97.2493 35.3617C95.9427 37.7317 96.1827 40.8153 97.9693 42.8667C99.5053 44.6416 101.969 45.3842 104.212 45.0616L104.311 45.159C105.585 46.3203 107.612 46.9984 109.377 46.9984L110.097 43.5132C110.097 43.3842 109.999 43.2551 109.836 43.3196L109.831 43.3183ZM52.9653 41.7686C51.2987 41.7686 50.1547 40.3163 50.1547 38.5428C50.1547 36.7692 51.2987 35.3169 52.9653 35.3169C54.632 35.3169 55.776 36.7692 55.776 38.5428C55.8093 40.3506 54.6653 41.7686 52.9653 41.7686ZM53.552 32.0226C50.9387 31.8291 48.2907 33.076 47.048 35.3143C45.7413 37.6843 45.9813 40.7679 47.768 42.8193C50.3173 45.7555 55.284 45.8529 57.964 43.0774C59.6973 41.2696 60.1867 38.5612 59.3373 36.236C58.4547 33.8475 56.1347 32.2333 53.5533 32.0226" fill="#0D389E"/>
<path d="M29.5307 24.5124L28.5147 29.3867C28.3987 29.9055 27.9053 30.3676 27.296 30.3676H18.4747C17.9968 30.3714 17.5397 30.5614 17.2029 30.8962C16.866 31.2311 16.6767 31.6837 16.676 32.1556V33.209C16.6767 33.6809 16.866 34.1335 17.2029 34.4684C17.5397 34.8032 17.9968 34.9932 18.4747 34.997H25.9333C26.1046 35.0018 26.2728 35.0431 26.4264 35.1182C26.58 35.1933 26.7153 35.3003 26.8229 35.4319C26.9306 35.5635 27.0082 35.7166 27.0503 35.8806C27.0923 36.0447 27.0979 36.2158 27.0667 36.3821L26.0507 41.3433C25.9937 41.6207 25.8411 41.8701 25.6189 42.0489C25.3967 42.2277 25.1186 42.325 24.832 42.3243H18.7387C17.4613 42.3532 17.2 42.3822 16.4453 43.3052L9.01601 52.5218C8.95734 52.6087 8.90001 52.5798 8.90001 52.4929V24.282C8.90001 23.6184 9.45201 23.0706 10.1187 23.0706H28.4253C29.0653 23.0706 29.7027 23.7053 29.528 24.5124H29.5307ZM30.8613 18.4268H8.25868C5.15201 18.4268 4.22534 20.7625 4.22534 22.2346V57.9426C4.22534 59.7016 5.12534 60.2204 5.61868 60.4232C6.11201 60.6259 7.41868 60.7694 8.34668 59.8465L19.2587 47.213C19.432 47.0116 19.52 47.0116 19.636 47.0116H26.4267C29.328 47.0116 29.8933 45.0208 30.2 43.8095C30.4613 42.7996 33.4507 28.3781 34.3787 23.8225C35.0747 20.303 34.176 18.4281 30.8667 18.4281" fill="#FA4778"/>
</svg>
