<svg width="183" height="41" viewBox="0 0 183 41" fill="none" xmlns="http://www.w3.org/2000/svg">
<path d="M136.015 11.3433C133.75 11.3433 131.577 12.2772 129.999 13.9172V5.23887C129.999 4.96554 129.77 4.73776 129.495 4.73776H126.43C126.156 4.73776 125.927 4.96554 125.927 5.23887V28.7C125.927 28.9733 126.156 29.2011 126.43 29.2011H129.495C129.77 29.2011 129.999 28.9733 129.999 28.7V27.0828C131.577 28.7228 133.727 29.6566 136.015 29.6566C140.796 29.6566 144.661 25.5566 144.661 20.5C144.661 15.4433 140.796 11.3433 136.015 11.3433ZM135.306 25.9894C132.4 25.9894 130.044 23.575 130.021 20.5683V20.4316C130.067 17.425 132.4 15.0105 135.306 15.0105C138.234 15.0105 140.59 17.4705 140.59 20.5C140.59 23.5294 138.211 25.9894 135.306 25.9894Z" fill="black"/>
<path d="M155.939 11.3433C150.769 11.3433 146.583 15.4433 146.583 20.5C146.583 25.5567 150.769 29.6567 155.939 29.6567C161.109 29.6567 165.295 25.5567 165.295 20.5C165.295 15.4433 161.109 11.3433 155.939 11.3433ZM155.916 25.9894C152.988 25.9894 150.632 23.5294 150.632 20.5C150.632 17.4705 153.011 15.0105 155.916 15.0105C158.821 15.0105 161.2 17.4705 161.2 20.5C161.2 23.5294 158.821 25.9894 155.916 25.9894Z" fill="black"/>
<path d="M98.7285 11.7989H95.6632C95.3887 11.7989 95.16 12.0267 95.16 12.3V13.9172C93.5816 12.2772 91.4314 11.3433 89.1439 11.3433C84.363 11.3433 80.4971 15.4433 80.4971 20.5C80.4971 25.5567 84.363 29.6567 89.1439 29.6567C91.4085 29.6567 93.5816 28.7228 95.16 27.0828V28.7C95.16 28.9733 95.3887 29.2011 95.6632 29.2011H98.7285C99.003 29.2011 99.2317 28.9733 99.2317 28.7V12.3C99.2317 12.0267 99.003 11.7989 98.7285 11.7989ZM89.853 25.9894C86.925 25.9894 84.5689 23.5294 84.5689 20.5C84.5689 17.4705 86.9479 15.0105 89.853 15.0105C92.7581 15.0105 95.1142 17.425 95.1371 20.4317V20.5683C95.1142 23.575 92.7581 25.9894 89.853 25.9894Z" fill="black"/>
<path d="M114.032 11.3433C111.767 11.3433 109.594 12.2772 108.016 13.9172V12.3C108.016 12.0267 107.787 11.7989 107.512 11.7989H104.447C104.173 11.7989 103.944 12.0267 103.944 12.3V35.7611C103.944 36.0344 104.173 36.2622 104.447 36.2622H107.512C107.787 36.2622 108.016 36.0344 108.016 35.7611V27.0828C109.594 28.7228 111.744 29.6567 114.032 29.6567C118.813 29.6567 122.679 25.5567 122.679 20.5C122.679 15.4433 118.813 11.3433 114.032 11.3433ZM113.323 25.9894C110.418 25.9894 108.061 23.575 108.039 20.5683V20.4317C108.084 17.425 110.418 15.0105 113.323 15.0105C116.251 15.0105 118.607 17.4705 118.607 20.5C118.607 23.5294 116.251 25.9894 113.323 25.9894Z" fill="black"/>
<path d="M71.3242 11.3433C69.0367 11.3661 66.9551 12.6872 65.9715 14.76C64.8506 12.6417 62.6089 11.3206 60.207 11.3433C58.3312 11.3433 56.5698 12.2544 55.4718 13.7578V12.3C55.4718 12.0267 55.2431 11.7989 54.9686 11.7989H51.9033C51.6288 11.7989 51.4001 12.0267 51.4001 12.3V28.7C51.4001 28.9733 51.6288 29.2011 51.9033 29.2011H54.9686C55.2431 29.2011 55.4718 28.9733 55.4718 28.7V18.8828C55.5862 16.6961 57.1188 14.9422 58.9946 14.9422C60.939 14.9422 62.5631 16.5595 62.5631 18.6778V28.7C62.5631 28.9733 62.7919 29.2011 63.0664 29.2011H66.1545C66.429 29.2011 66.6577 28.9733 66.6577 28.7L66.6348 18.4956C66.9093 16.4911 68.3505 14.9422 70.1119 14.9422C72.0562 14.9422 73.6804 16.5595 73.6804 18.6778V28.7C73.6804 28.9733 73.9091 29.2011 74.1836 29.2011H77.2717C77.5462 29.2011 77.775 28.9733 77.775 28.7L77.7521 17.425C77.7521 14.0539 74.8699 11.3433 71.3242 11.3433Z" fill="black"/>
<path d="M181.788 28.495L176.481 20.4544L181.742 12.4822C181.879 12.2772 181.81 11.9811 181.605 11.8444C181.536 11.7989 181.444 11.7761 181.353 11.7761H177.807C177.533 11.7761 177.281 11.9128 177.144 12.1405L174.056 17.3111L170.968 12.1633C170.83 11.9355 170.579 11.7989 170.304 11.7989H166.759C166.507 11.7989 166.301 12.0039 166.301 12.2544C166.301 12.3455 166.324 12.4366 166.37 12.505L171.631 20.4772L166.324 28.5178C166.187 28.7228 166.255 29.0189 166.461 29.1555C166.53 29.2011 166.621 29.2239 166.713 29.2239H170.259C170.533 29.2239 170.785 29.0872 170.922 28.8594L174.079 23.6205L177.235 28.8594C177.373 29.0872 177.624 29.2239 177.899 29.2239H181.399C181.65 29.2239 181.856 29.0189 181.856 28.7683C181.856 28.6772 181.833 28.5861 181.788 28.495Z" fill="black"/>
<path d="M21.4796 0.250549C10.248 0.250549 1.14374 9.3161 1.14374 20.5C1.14374 31.6839 10.248 40.7494 21.4796 40.7494C32.7112 40.7494 41.8155 31.6839 41.8155 20.5C41.8155 9.3161 32.7112 0.250549 21.4796 0.250549ZM31.1329 25.4655C24.1789 32.39 11.7577 30.1805 11.7577 30.1805C11.7577 30.1805 9.51599 17.835 16.4929 10.8878C20.3587 7.03833 26.7637 7.19777 30.8126 11.2067C34.8615 15.2155 34.9987 21.6161 31.1329 25.4655Z" fill="black"/>
<path d="M23.8128 12.1178L21.8227 16.195L17.7281 18.1767L21.8227 20.1583L23.8128 24.2355L25.803 20.1583L29.8976 18.1767L25.803 16.195L23.8128 12.1178Z" fill="black"/>
</svg>
